<svg width="64" height="64" viewBox="0 0 64 64" fill="none" xmlns="http://www.w3.org/2000/svg">
  <rect x="3.5" y="3.5" width="57" height="57" rx="17.5" fill="#FBFAFF" stroke="#E9E4FF"/>
  <g fill="#8A71DF" stroke="#FBFAFF" stroke-width="1.6" stroke-linejoin="round">
    <path d="M32 31.8C25.1 28.1 20.2 23.6 20.2 18.6C20.2 14.1 23.4 11 27.7 11C29.4 11 31 11.6 32 12.7C33 11.6 34.6 11 36.3 11C40.6 11 43.8 14.1 43.8 18.6C43.8 23.6 38.9 28.1 32 31.8Z"/>
    <path d="M32 31.8C35.7 24.9 40.2 20 45.2 20C49.7 20 52.8 23.2 52.8 27.5C52.8 29.2 52.2 30.8 51.1 31.8C52.2 32.8 52.8 34.4 52.8 36.1C52.8 40.4 49.7 43.6 45.2 43.6C40.2 43.6 35.7 38.7 32 31.8Z"/>
    <path d="M32 31.8C38.9 35.5 43.8 40 43.8 45C43.8 49.5 40.6 52.6 36.3 52.6C34.6 52.6 33 52 32 50.9C31 52 29.4 52.6 27.7 52.6C23.4 52.6 20.2 49.5 20.2 45C20.2 40 25.1 35.5 32 31.8Z"/>
    <path d="M32 31.8C28.3 38.7 23.8 43.6 18.8 43.6C14.3 43.6 11.2 40.4 11.2 36.1C11.2 34.4 11.8 32.8 12.9 31.8C11.8 30.8 11.2 29.2 11.2 27.5C11.2 23.2 14.3 20 18.8 20C23.8 20 28.3 24.9 32 31.8Z"/>
  </g>
  <circle cx="32" cy="32" r="3.2" fill="#FBFAFF"/>
</svg>
